<svg aria-roledescription="er" viewBox="0 0 475.591796875 320" style="max-width: 475.592px; background-color: white;" xmlns:xlink="http://www.w3.org/1999/xlink" xmlns="http://www.w3.org/2000/svg" width="100%" id="mermaid-0"><style>#mermaid-0{font-family:"trebuchet ms",verdana,arial,sans-serif;font-size:16px;fill:#ccc;}#mermaid-0 .error-icon{fill:#a44141;}#mermaid-0 .error-text{fill:#ddd;stroke:#ddd;}#mermaid-0 .edge-thickness-normal{stroke-width:2px;}#mermaid-0 .edge-thickness-thick{stroke-width:3.5px;}#mermaid-0 .edge-pattern-solid{stroke-dasharray:0;}#mermaid-0 .edge-pattern-dashed{stroke-dasharray:3;}#mermaid-0 .edge-pattern-dotted{stroke-dasharray:2;}#mermaid-0 .marker{fill:lightgrey;stroke:lightgrey;}#mermaid-0 .marker.cross{stroke:lightgrey;}#mermaid-0 svg{font-family:"trebuchet ms",verdana,arial,sans-serif;font-size:16px;}#mermaid-0 .entityBox{fill:#1f2020;stroke:#81B1DB;}#mermaid-0 .attributeBoxOdd{fill:hsl(0, 0%, 32%);stroke:#81B1DB;}#mermaid-0 .attributeBoxEven{fill:hsl(0, 0%, 22%);stroke:#81B1DB;}#mermaid-0 .relationshipLabelBox{fill:hsl(20, 1.5873015873%, 12.3529411765%);opacity:0.7;background-color:hsl(20, 1.5873015873%, 12.3529411765%);}#mermaid-0 .relationshipLabelBox rect{opacity:0.5;}#mermaid-0 .relationshipLine{stroke:lightgrey;}#mermaid-0 .entityTitleText{text-anchor:middle;font-size:18px;fill:#ccc;}#mermaid-0 :root{--mermaid-font-family:"trebuchet ms",verdana,arial,sans-serif;}</style><g/><defs><marker orient="auto" markerHeight="18" markerWidth="18" refY="9" refX="0" id="ONLY_ONE_START"><path d="M9,0 L9,18 M15,0 L15,18" fill="none" stroke="gray"/></marker></defs><defs><marker orient="auto" markerHeight="18" markerWidth="18" refY="9" refX="18" id="ONLY_ONE_END"><path d="M3,0 L3,18 M9,0 L9,18" fill="none" stroke="gray"/></marker></defs><defs><marker orient="auto" markerHeight="18" markerWidth="30" refY="9" refX="0" id="ZERO_OR_ONE_START"><circle r="6" cy="9" cx="21" fill="white" stroke="gray"/><path d="M9,0 L9,18" fill="none" stroke="gray"/></marker></defs><defs><marker orient="auto" markerHeight="18" markerWidth="30" refY="9" refX="30" id="ZERO_OR_ONE_END"><circle r="6" cy="9" cx="9" fill="white" stroke="gray"/><path d="M21,0 L21,18" fill="none" stroke="gray"/></marker></defs><defs><marker orient="auto" markerHeight="36" markerWidth="45" refY="18" refX="18" id="ONE_OR_MORE_START"><path d="M0,18 Q 18,0 36,18 Q 18,36 0,18 M42,9 L42,27" fill="none" stroke="gray"/></marker></defs><defs><marker orient="auto" markerHeight="36" markerWidth="45" refY="18" refX="27" id="ONE_OR_MORE_END"><path d="M3,9 L3,27 M9,18 Q27,0 45,18 Q27,36 9,18" fill="none" stroke="gray"/></marker></defs><defs><marker orient="auto" markerHeight="36" markerWidth="57" refY="18" refX="18" id="ZERO_OR_MORE_START"><circle r="6" cy="18" cx="48" fill="white" stroke="gray"/><path d="M0,18 Q18,0 36,18 Q18,36 0,18" fill="none" stroke="gray"/></marker></defs><defs><marker orient="auto" markerHeight="36" markerWidth="57" refY="18" refX="39" id="ZERO_OR_MORE_END"><circle r="6" cy="18" cx="9" fill="white" stroke="gray"/><path d="M21,18 Q39,0 57,18 Q39,36 21,18" fill="none" stroke="gray"/></marker></defs><path style="stroke: gray; fill: none;" marker-start="url(#ZERO_OR_MORE_START)" marker-end="url(#ONLY_ONE_END)" d="M83.984375,110L83.984375,118.33333333333333C83.984375,126.66666666666667,83.984375,143.33333333333334,88.3703399122807,160C92.75630482456141,176.66666666666666,101.52823464912281,193.33333333333334,105.9141995614035,201.66666666666666L110.3001644736842,210" class="er relationshipLine"/><path style="stroke: gray; fill: none;" marker-start="url(#ZERO_OR_MORE_START)" marker-end="url(#ONLY_ONE_END)" d="M376.3346011513158,110L380.72056606359655,118.33333333333333C385.1065309758772,126.66666666666667,393.87846080043863,143.33333333333334,398.2644257127193,161.83333333333334C402.650390625,180.33333333333334,402.650390625,200.66666666666666,402.650390625,210.83333333333334L402.650390625,221" class="er relationshipLine"/><path style="stroke: gray; fill: none;" marker-start="url(#ZERO_OR_MORE_START)" marker-end="url(#ONLY_ONE_END)" d="M300.4156044407895,110L290.7424958881579,118.33333333333333C281.0693873355263,126.66666666666667,261.7231702302632,143.33333333333334,242.54194078947373,160C223.3607113486842,176.66666666666666,204.3444695723684,193.33333333333334,194.83634868421052,201.66666666666666L185.32822779605263,210" class="er relationshipLine"/><g transform="translate(66.37890625,210 )" id="entity-habits-87e7133d-ee92-4ed9-aab3-f1ebb5d4fc88"><rect height="90" width="135.2109375" y="0" x="0" class="er entityBox"/><text style="dominant-baseline: middle; text-anchor: middle; font-size: 12px;" transform="translate(67.60546875,12)" y="0" x="0" id="text-entity-habits-87e7133d-ee92-4ed9-aab3-f1ebb5d4fc88" class="er entityLabel">habits</text><rect height="22" width="53.6640625" y="24" x="0" class="er attributeBoxOdd"/><text style="dominant-baseline: middle; font-size: 10.2px;" transform="translate(5,35)" y="0" x="0" id="text-entity-habits-87e7133d-ee92-4ed9-aab3-f1ebb5d4fc88-attr-1-type" class="er entityLabel">String</text><rect height="22" width="59.984375" y="24" x="53.6640625" class="er attributeBoxOdd"/><text style="dominant-baseline: middle; font-size: 10.2px;" transform="translate(58.6640625,35)" y="0" x="0" id="text-entity-habits-87e7133d-ee92-4ed9-aab3-f1ebb5d4fc88-attr-1-name" class="er entityLabel">id</text><rect height="22" width="21.5625" y="24" x="113.6484375" class="er attributeBoxOdd"/><text style="dominant-baseline: middle; font-size: 10.2px;" transform="translate(118.6484375,35)" y="0" x="0" id="text-entity-habits-87e7133d-ee92-4ed9-aab3-f1ebb5d4fc88-attr-1-key" class="er entityLabel">PK</text><rect height="22" width="53.6640625" y="46" x="0" class="er attributeBoxEven"/><text style="dominant-baseline: middle; font-size: 10.2px;" transform="translate(5,57)" y="0" x="0" id="text-entity-habits-87e7133d-ee92-4ed9-aab3-f1ebb5d4fc88-attr-2-type" class="er entityLabel">String</text><rect height="22" width="59.984375" y="46" x="53.6640625" class="er attributeBoxEven"/><text style="dominant-baseline: middle; font-size: 10.2px;" transform="translate(58.6640625,57)" y="0" x="0" id="text-entity-habits-87e7133d-ee92-4ed9-aab3-f1ebb5d4fc88-attr-2-name" class="er entityLabel">title</text><rect height="22" width="21.5625" y="46" x="113.6484375" class="er attributeBoxEven"/><text style="dominant-baseline: middle; font-size: 10.2px;" transform="translate(118.6484375,57)" y="0" x="0" id="text-entity-habits-87e7133d-ee92-4ed9-aab3-f1ebb5d4fc88-attr-2-key" class="er entityLabel"/><rect height="22" width="53.6640625" y="68" x="0" class="er attributeBoxOdd"/><text style="dominant-baseline: middle; font-size: 10.2px;" transform="translate(5,79)" y="0" x="0" id="text-entity-habits-87e7133d-ee92-4ed9-aab3-f1ebb5d4fc88-attr-3-type" class="er entityLabel">DateTime</text><rect height="22" width="59.984375" y="68" x="53.6640625" class="er attributeBoxOdd"/><text style="dominant-baseline: middle; font-size: 10.2px;" transform="translate(58.6640625,79)" y="0" x="0" id="text-entity-habits-87e7133d-ee92-4ed9-aab3-f1ebb5d4fc88-attr-3-name" class="er entityLabel">created_at</text><rect height="22" width="21.5625" y="68" x="113.6484375" class="er attributeBoxOdd"/><text style="dominant-baseline: middle; font-size: 10.2px;" transform="translate(118.6484375,79)" y="0" x="0" id="text-entity-habits-87e7133d-ee92-4ed9-aab3-f1ebb5d4fc88-attr-3-key" class="er entityLabel"/></g><g transform="translate(20,20 )" id="entity-habitrecurrences-5f2b3322-7544-4436-b8ec-bb59342b212b"><rect height="90" width="127.96875" y="0" x="0" class="er entityBox"/><text style="dominant-baseline: middle; text-anchor: middle; font-size: 12px;" transform="translate(63.984375,12)" y="0" x="0" id="text-entity-habitrecurrences-5f2b3322-7544-4436-b8ec-bb59342b212b" class="er entityLabel">habit_recurrences</text><rect height="22" width="36.5234375" y="24" x="0" class="er attributeBoxOdd"/><text style="dominant-baseline: middle; font-size: 10.2px;" transform="translate(5,35)" y="0" x="0" id="text-entity-habitrecurrences-5f2b3322-7544-4436-b8ec-bb59342b212b-attr-1-type" class="er entityLabel">String</text><rect height="22" width="69.8828125" y="24" x="36.5234375" class="er attributeBoxOdd"/><text style="dominant-baseline: middle; font-size: 10.2px;" transform="translate(41.5234375,35)" y="0" x="0" id="text-entity-habitrecurrences-5f2b3322-7544-4436-b8ec-bb59342b212b-attr-1-name" class="er entityLabel">id</text><rect height="22" width="21.5625" y="24" x="106.40625" class="er attributeBoxOdd"/><text style="dominant-baseline: middle; font-size: 10.2px;" transform="translate(111.40625,35)" y="0" x="0" id="text-entity-habitrecurrences-5f2b3322-7544-4436-b8ec-bb59342b212b-attr-1-key" class="er entityLabel">PK</text><rect height="22" width="36.5234375" y="46" x="0" class="er attributeBoxEven"/><text style="dominant-baseline: middle; font-size: 10.2px;" transform="translate(5,57)" y="0" x="0" id="text-entity-habitrecurrences-5f2b3322-7544-4436-b8ec-bb59342b212b-attr-2-type" class="er entityLabel">Int</text><rect height="22" width="69.8828125" y="46" x="36.5234375" class="er attributeBoxEven"/><text style="dominant-baseline: middle; font-size: 10.2px;" transform="translate(41.5234375,57)" y="0" x="0" id="text-entity-habitrecurrences-5f2b3322-7544-4436-b8ec-bb59342b212b-attr-2-name" class="er entityLabel">day_of_week</text><rect height="22" width="21.5625" y="46" x="106.40625" class="er attributeBoxEven"/><text style="dominant-baseline: middle; font-size: 10.2px;" transform="translate(111.40625,57)" y="0" x="0" id="text-entity-habitrecurrences-5f2b3322-7544-4436-b8ec-bb59342b212b-attr-2-key" class="er entityLabel"/><rect height="22" width="36.5234375" y="68" x="0" class="er attributeBoxOdd"/><text style="dominant-baseline: middle; font-size: 10.2px;" transform="translate(5,79)" y="0" x="0" id="text-entity-habitrecurrences-5f2b3322-7544-4436-b8ec-bb59342b212b-attr-3-type" class="er entityLabel">String</text><rect height="22" width="69.8828125" y="68" x="36.5234375" class="er attributeBoxOdd"/><text style="dominant-baseline: middle; font-size: 10.2px;" transform="translate(41.5234375,79)" y="0" x="0" id="text-entity-habitrecurrences-5f2b3322-7544-4436-b8ec-bb59342b212b-attr-3-name" class="er entityLabel">habit_id</text><rect height="22" width="21.5625" y="68" x="106.40625" class="er attributeBoxOdd"/><text style="dominant-baseline: middle; font-size: 10.2px;" transform="translate(111.40625,79)" y="0" x="0" id="text-entity-habitrecurrences-5f2b3322-7544-4436-b8ec-bb59342b212b-attr-3-key" class="er entityLabel"/></g><g transform="translate(349.708984375,221 )" id="entity-days-acee3cd9-710f-45a1-b68d-f59f3f57201c"><rect height="68" width="105.8828125" y="0" x="0" class="er entityBox"/><text style="dominant-baseline: middle; text-anchor: middle; font-size: 12px;" transform="translate(52.94140625,12)" y="0" x="0" id="text-entity-days-acee3cd9-710f-45a1-b68d-f59f3f57201c" class="er entityLabel">days</text><rect height="22" width="53.6640625" y="24" x="0" class="er attributeBoxOdd"/><text style="dominant-baseline: middle; font-size: 10.2px;" transform="translate(5,35)" y="0" x="0" id="text-entity-days-acee3cd9-710f-45a1-b68d-f59f3f57201c-attr-1-type" class="er entityLabel">String</text><rect height="22" width="30.65625" y="24" x="53.6640625" class="er attributeBoxOdd"/><text style="dominant-baseline: middle; font-size: 10.2px;" transform="translate(58.6640625,35)" y="0" x="0" id="text-entity-days-acee3cd9-710f-45a1-b68d-f59f3f57201c-attr-1-name" class="er entityLabel">id</text><rect height="22" width="21.5625" y="24" x="84.3203125" class="er attributeBoxOdd"/><text style="dominant-baseline: middle; font-size: 10.2px;" transform="translate(89.3203125,35)" y="0" x="0" id="text-entity-days-acee3cd9-710f-45a1-b68d-f59f3f57201c-attr-1-key" class="er entityLabel">PK</text><rect height="22" width="53.6640625" y="46" x="0" class="er attributeBoxEven"/><text style="dominant-baseline: middle; font-size: 10.2px;" transform="translate(5,57)" y="0" x="0" id="text-entity-days-acee3cd9-710f-45a1-b68d-f59f3f57201c-attr-2-type" class="er entityLabel">DateTime</text><rect height="22" width="30.65625" y="46" x="53.6640625" class="er attributeBoxEven"/><text style="dominant-baseline: middle; font-size: 10.2px;" transform="translate(58.6640625,57)" y="0" x="0" id="text-entity-days-acee3cd9-710f-45a1-b68d-f59f3f57201c-attr-2-name" class="er entityLabel">date</text><rect height="22" width="21.5625" y="46" x="84.3203125" class="er attributeBoxEven"/><text style="dominant-baseline: middle; font-size: 10.2px;" transform="translate(89.3203125,57)" y="0" x="0" id="text-entity-days-acee3cd9-710f-45a1-b68d-f59f3f57201c-attr-2-key" class="er entityLabel"/></g><g transform="translate(299.849609375,20 )" id="entity-dayshabits-d72dffa5-0200-423f-9e36-ad4c605c31d2"><rect height="90" width="105.6015625" y="0" x="0" class="er entityBox"/><text style="dominant-baseline: middle; text-anchor: middle; font-size: 12px;" transform="translate(52.80078125,12)" y="0" x="0" id="text-entity-dayshabits-d72dffa5-0200-423f-9e36-ad4c605c31d2" class="er entityLabel">days_habits</text><rect height="22" width="36.5234375" y="24" x="0" class="er attributeBoxOdd"/><text style="dominant-baseline: middle; font-size: 10.2px;" transform="translate(5,35)" y="0" x="0" id="text-entity-dayshabits-d72dffa5-0200-423f-9e36-ad4c605c31d2-attr-1-type" class="er entityLabel">String</text><rect height="22" width="47.515625" y="24" x="36.5234375" class="er attributeBoxOdd"/><text style="dominant-baseline: middle; font-size: 10.2px;" transform="translate(41.5234375,35)" y="0" x="0" id="text-entity-dayshabits-d72dffa5-0200-423f-9e36-ad4c605c31d2-attr-1-name" class="er entityLabel">id</text><rect height="22" width="21.5625" y="24" x="84.0390625" class="er attributeBoxOdd"/><text style="dominant-baseline: middle; font-size: 10.2px;" transform="translate(89.0390625,35)" y="0" x="0" id="text-entity-dayshabits-d72dffa5-0200-423f-9e36-ad4c605c31d2-attr-1-key" class="er entityLabel">PK</text><rect height="22" width="36.5234375" y="46" x="0" class="er attributeBoxEven"/><text style="dominant-baseline: middle; font-size: 10.2px;" transform="translate(5,57)" y="0" x="0" id="text-entity-dayshabits-d72dffa5-0200-423f-9e36-ad4c605c31d2-attr-2-type" class="er entityLabel">String</text><rect height="22" width="47.515625" y="46" x="36.5234375" class="er attributeBoxEven"/><text style="dominant-baseline: middle; font-size: 10.2px;" transform="translate(41.5234375,57)" y="0" x="0" id="text-entity-dayshabits-d72dffa5-0200-423f-9e36-ad4c605c31d2-attr-2-name" class="er entityLabel">day_id</text><rect height="22" width="21.5625" y="46" x="84.0390625" class="er attributeBoxEven"/><text style="dominant-baseline: middle; font-size: 10.2px;" transform="translate(89.0390625,57)" y="0" x="0" id="text-entity-dayshabits-d72dffa5-0200-423f-9e36-ad4c605c31d2-attr-2-key" class="er entityLabel"/><rect height="22" width="36.5234375" y="68" x="0" class="er attributeBoxOdd"/><text style="dominant-baseline: middle; font-size: 10.2px;" transform="translate(5,79)" y="0" x="0" id="text-entity-dayshabits-d72dffa5-0200-423f-9e36-ad4c605c31d2-attr-3-type" class="er entityLabel">String</text><rect height="22" width="47.515625" y="68" x="36.5234375" class="er attributeBoxOdd"/><text style="dominant-baseline: middle; font-size: 10.2px;" transform="translate(41.5234375,79)" y="0" x="0" id="text-entity-dayshabits-d72dffa5-0200-423f-9e36-ad4c605c31d2-attr-3-name" class="er entityLabel">habit_id</text><rect height="22" width="21.5625" y="68" x="84.0390625" class="er attributeBoxOdd"/><text style="dominant-baseline: middle; font-size: 10.2px;" transform="translate(89.0390625,79)" y="0" x="0" id="text-entity-dayshabits-d72dffa5-0200-423f-9e36-ad4c605c31d2-attr-3-key" class="er entityLabel"/></g><rect height="14" width="27.7265625" y="155.108642578125" x="75.0850601196289" class="er relationshipLabelBox"/><text style="text-anchor: middle; dominant-baseline: middle; font-size: 12px;" y="162.108642578125" x="88.9483413696289" id="rel1" class="er relationshipLabel">habit</text><rect height="14" width="18.9140625" y="156.30715942382812" x="389.1466064453125" class="er relationshipLabelBox"/><text style="text-anchor: middle; dominant-baseline: middle; font-size: 12px;" y="163.30715942382812" x="398.6036376953125" id="rel2" class="er relationshipLabel">day</text><rect height="14" width="27.7265625" y="152.8367156982422" x="228.8667755126953" class="er relationshipLabelBox"/><text style="text-anchor: middle; dominant-baseline: middle; font-size: 12px;" y="159.8367156982422" x="242.7300567626953" id="rel3" class="er relationshipLabel">habit</text></svg>